<svg xmlns="http://www.w3.org/2000/svg" xmlns:xlink="http://www.w3.org/1999/xlink" width="1080" zoomAndPan="magnify" viewBox="0 0 810 809.999993" height="1080" preserveAspectRatio="xMidYMid meet" version="1.2"><defs><clipPath id="ef5be7afdb"><path d="M 0 84.3125 L 809.976562 84.3125 L 809.976562 133 L 0 133 Z M 0 84.3125 "/></clipPath><clipPath id="b9cf73e3c9"><path d="M 0 380.070312 L 809.976562 380.070312 L 809.976562 430 L 0 430 Z M 0 380.070312 "/></clipPath><clipPath id="6ac640a9a9"><path d="M 0 677.023438 L 809.976562 677.023438 L 809.976562 725.644531 L 0 725.644531 Z M 0 677.023438 "/></clipPath></defs><g id="c7fd3129d3"><g clip-rule="nonzero" clip-path="url(#ef5be7afdb)"><path style=" stroke:none;fill-rule:nonzero;fill:#ffffff;fill-opacity:1;" d="M 785.890625 132.488281 L 24.089844 132.488281 C 10.785156 132.488281 0 121.699219 0 108.394531 C 0 95.101562 10.785156 84.3125 24.089844 84.3125 L 785.890625 84.3125 C 799.195312 84.3125 809.980469 95.101562 809.980469 108.394531 C 809.980469 121.699219 799.195312 132.488281 785.890625 132.488281 "/></g><g clip-rule="nonzero" clip-path="url(#b9cf73e3c9)"><path style=" stroke:none;fill-rule:nonzero;fill:#ffffff;fill-opacity:1;" d="M 785.890625 429.066406 L 24.089844 429.066406 C 10.785156 429.066406 0 418.269531 0 404.980469 C 0 391.675781 10.785156 380.882812 24.089844 380.882812 L 785.890625 380.882812 C 799.195312 380.882812 809.980469 391.675781 809.980469 404.980469 C 809.980469 418.269531 799.195312 429.066406 785.890625 429.066406 "/></g><g clip-rule="nonzero" clip-path="url(#6ac640a9a9)"><path style=" stroke:none;fill-rule:nonzero;fill:#ffffff;fill-opacity:1;" d="M 785.890625 725.644531 L 24.089844 725.644531 C 10.785156 725.644531 0 714.855469 0 701.550781 C 0 688.253906 10.785156 677.460938 24.089844 677.460938 L 785.890625 677.460938 C 799.195312 677.460938 809.980469 688.253906 809.980469 701.550781 C 809.980469 714.855469 799.195312 725.644531 785.890625 725.644531 "/></g></g></svg>